<?xml version="1.0" encoding="UTF-8"?>
<svg id="_레이어_2" data-name="레이어 2" xmlns="http://www.w3.org/2000/svg" viewBox="0 0 1000 928.97">
  <defs>
    <style>
      .cls-1 {
        fill: #fcd53f;
        stroke-width: 0px;
      }
    </style>
  </defs>
  <g id="_레이어_1-2" data-name="레이어 1">
    <path class="cls-1" d="M676.82,212.06c12.88,24.45,32.86,38.64,59.95,42.61l169.45,22.79c22.79,3.31,41.78,11.81,56.98,25.52,15.19,13.71,25.76,30.15,31.71,49.3,5.95,19.16,6.69,38.73,2.23,58.71-4.46,19.99-15.11,37.74-31.96,53.26l-115.94,107.02c-21.8,19.82-30.06,44.09-24.77,72.83l28.74,157.06c3.96,21.8,1.9,41.87-6.19,60.2-8.1,18.33-19.99,33.44-35.67,45.34-15.69,11.89-33.53,19.08-53.51,21.55-19.99,2.48-40.05-1.41-60.2-11.64l-162.01-80.26c-23.78-11.57-47.56-11.57-71.35,0l-162.02,80.26c-20.15,9.91-40.13,13.63-59.95,11.15-19.82-2.48-37.66-9.58-53.51-21.3-15.85-11.73-27.75-26.76-35.67-45.09-7.93-18.33-9.91-38.4-5.95-60.2l28.24-157.06c5.28-28.74-2.81-53.01-24.28-72.83l-116.43-107.02c-16.52-15.52-27.09-33.27-31.71-53.26-4.63-19.98-3.89-39.55,2.23-58.71,6.11-19.15,16.68-35.59,31.71-49.3,15.03-13.7,33.94-22.21,56.73-25.52l169.45-22.79c27.74-3.96,47.89-18.16,60.45-42.61l80.26-154.09c10.23-19.15,23.94-33.61,41.12-43.35,17.17-9.74,35.59-14.62,55.24-14.62s38.06,4.88,55.24,14.62c17.17,9.75,30.88,24.2,41.12,43.35l80.26,154.09Z"/>
  </g>
</svg>